# xmcd CD database file
#
# Track frame offsets:
#	150
#	19140
#	35785
#	51975
#	67482
#	82515
#	98052
#	112782
#	128695
#	143847
#	162300
#	175945
#	189225
#	203015
#	220197
#	235702
#
# Disc length: 3333 seconds
#
# Revision: 3
# Processed by: cddbd v1.5.2PL0 Copyright (c) Steve Scherf et al.
# Submitted via: CDex 1.51
#
DISCID=d50d0310
DTITLE=Keith Whitley - 16 Biggest Hits
DYEAR=2006
DGENRE=Country
TTITLE0=Don't Close Your Eyes
TTITLE1=When You Say Nothing At All
TTITLE2=I'm No Stranger To The Rain
TTITLE3=Miami, My Amy
TTITLE4=Brotherly Love
TTITLE5=Some Old Side Road
TTITLE6=I Wonder Do You Think Of Me
TTITLE7='Til A Tear Becomes A Rose
TTITLE8=Ten Feet Away
TTITLE9=It Ain't Nothin'
TTITLE10=Homecoming '63
TTITLE11=Hard Livin'
TTITLE12=I'm Over You
TTITLE13=Somebody's Doin' Me Right
TTITLE14=Turn To Love
TTITLE15=Would These Arms Be In Your Way
EXTD=YEAR: 2006
EXTT0=
EXTT1=
EXTT2=
EXTT3=
EXTT4=
EXTT5=
EXTT6=
EXTT7=
EXTT8=
EXTT9=
EXTT10=
EXTT11=
EXTT12=
EXTT13=
EXTT14=
EXTT15=
PLAYORDER=
